<?xml version="1.0" ?><!DOCTYPE svg  PUBLIC '-//W3C//DTD SVG 1.1//EN'  'http://www.w3.org/Graphics/SVG/1.1/DTD/svg11.dtd'><svg id="Lager_1" style="enable-background:new -265 388.9 64 64;" version="1.1" viewBox="-265 388.9 64 64" xml:space="preserve" xmlns="http://www.w3.org/2000/svg" xmlns:xlink="http://www.w3.org/1999/xlink"><g><path d="M-242.4,404.9h7.8c0.7,0,1.2,0.8,0.9,1.4l-7.3,14.6l7.3,14.6c0.3,0.7-0.2,1.4-0.9,1.4h-7.8c-0.4,0-0.7-0.2-0.9-0.6   l-7.7-15.4l7.7-15.4C-243.1,405.1-242.8,404.9-242.4,404.9z"/><path d="M-226.4,404.9h7.8c0.7,0,1.2,0.8,0.9,1.4l-7.3,14.6l7.3,14.6c0.3,0.7-0.2,1.4-0.9,1.4h-7.8c-0.4,0-0.7-0.2-0.9-0.6   l-7.7-15.4l7.7-15.4C-227.1,405.1-226.8,404.9-226.4,404.9z"/></g></svg>